# xmcd
#
# Track frame offsets:
#	150
#	38210
#	66305
#
# Disc length: 1192 seconds
#
# Revision: 3
# Processed by: cddbd v1.5.2PL0 Copyright (c) Steve Scherf et al.
# Submitted via: dBpowerAMP V4.0
#
DISCID=2404a603
DTITLE=THE HELLFIRE CLUB - BLACK MAGIC
DYEAR=1998
DGENRE=Dance
TTITLE0=black magic
TTITLE1=black magic dub
TTITLE2=invocation to papa negro
EXTD=cd single
EXTT0=
EXTT1=
EXTT2=
PLAYORDER=
